<svg width="24" height="24" viewBox="0 0 24 24" fill="none" xmlns="http://www.w3.org/2000/svg">
<path d="M8.8 20V15.9L10.7 16.1C11.2531 16.0693 11.7766 15.8399 12.1742 15.4541C12.5717 15.0683 12.8167 14.552 12.864 14V8.30001C12.8706 6.85936 12.3047 5.47507 11.2907 4.45169C10.2767 3.4283 8.89766 2.84964 7.457 2.84301C6.01634 2.83638 4.63206 3.40232 3.60867 4.41633C2.58529 5.43034 2.00663 6.80936 2 8.25001C2 11.05 2.656 11.304 3 12.8C3.23248 13.7035 3.24243 14.6499 3.029 15.558L2 20M19.8 17.8C21.2058 16.394 21.9958 14.4874 21.9964 12.4991C21.997 10.5109 21.208 8.60379 19.803 7.19701M17 15C17.3272 14.6729 17.5863 14.2842 17.7622 13.8563C17.9382 13.4285 18.0277 12.9699 18.0253 12.5073C18.023 12.0447 17.929 11.5871 17.7487 11.161C17.5684 10.7349 17.3054 10.3488 16.975 10.025" stroke="#A3A3A3" stroke-width="2" stroke-linecap="round" stroke-linejoin="round"/>
</svg>

