<svg width="20" height="20" viewBox="0 0 20 20" fill="none" xmlns="http://www.w3.org/2000/svg">
<path d="M7 1H2C1.44772 1 1 1.44772 1 2V7C1 7.55228 1.44772 8 2 8H7C7.55228 8 8 7.55228 8 7V2C8 1.44772 7.55228 1 7 1Z" stroke="white" stroke-width="2" stroke-linecap="round" stroke-linejoin="round"/>
<path d="M18 1H13C12.4477 1 12 1.44772 12 2V7C12 7.55228 12.4477 8 13 8H18C18.5523 8 19 7.55228 19 7V2C19 1.44772 18.5523 1 18 1Z" stroke="white" stroke-width="2" stroke-linecap="round" stroke-linejoin="round"/>
<path d="M18 12H13C12.4477 12 12 12.4477 12 13V18C12 18.5523 12.4477 19 13 19H18C18.5523 19 19 18.5523 19 18V13C19 12.4477 18.5523 12 18 12Z" stroke="white" stroke-width="2" stroke-linecap="round" stroke-linejoin="round"/>
<path d="M7 12H2C1.44772 12 1 12.4477 1 13V18C1 18.5523 1.44772 19 2 19H7C7.55228 19 8 18.5523 8 18V13C8 12.4477 7.55228 12 7 12Z" stroke="white" stroke-width="2" stroke-linecap="round" stroke-linejoin="round"/>
</svg>

