<svg width="220" height="220" viewBox="0 0 220 220" fill="none" xmlns="http://www.w3.org/2000/svg">
<g clip-path="url(#clip0_612_838)">
<rect width="220" height="220" rx="40" fill="#10B981"/>
<path d="M43.2407 56.4187C45.3392 57.6711 47.6535 58.2772 49.6846 58.1418C50.1738 58.1091 50.6467 58.0335 51.096 57.9136C54.2915 57.0597 56.9765 53.9031 58.4626 49.2535C60.0356 44.3315 60.1381 38.0992 58.7511 31.705C58.6984 31.4628 58.5479 31.2534 58.3352 31.1263C58.1223 30.9995 57.8661 30.9664 57.6286 31.0351C51.3421 32.8499 45.9053 35.8983 42.3199 39.619C38.9329 43.134 37.4297 46.9953 38.1959 50.2128C38.7508 52.5445 40.6367 54.8644 43.2407 56.4187Z" fill="white"/>
<path d="M83.6668 56.4187C85.7653 57.6711 88.0796 58.2772 90.1107 58.1418C90.5999 58.1091 91.0728 58.0335 91.5221 57.9136C94.7176 57.0597 97.4026 53.9031 98.8887 49.2535C100.462 44.3315 100.564 38.0992 99.1772 31.705C99.1245 31.4628 98.974 31.2534 98.7613 31.1263C98.5484 30.9995 98.2923 30.9664 98.0547 31.0351C91.7682 32.8499 86.3314 35.8983 82.746 39.619C79.359 43.134 77.8558 46.9953 78.622 50.2128C79.1769 52.5445 81.0628 54.8644 83.6668 56.4187Z" fill="white"/>
<path d="M124.093 56.4187C126.191 57.6711 128.506 58.2772 130.537 58.1418C131.026 58.1091 131.499 58.0335 131.948 57.9136C135.144 57.0597 137.829 53.9031 139.315 49.2535C140.888 44.3315 140.99 38.0992 139.603 31.705C139.551 31.4628 139.4 31.2534 139.187 31.1263C138.975 30.9995 138.718 30.9664 138.481 31.0351C132.194 32.8499 126.758 35.8983 123.172 39.619C119.785 43.134 118.282 46.9953 119.048 50.2128C119.603 52.5445 121.489 54.8644 124.093 56.4187Z" fill="white"/>
<path d="M164.519 56.4187C166.617 57.6711 168.932 58.2772 170.963 58.1418C171.452 58.1091 171.925 58.0335 172.374 57.9136C175.57 57.0597 178.255 53.9031 179.741 49.2535C181.314 44.3315 181.416 38.0992 180.029 31.705C179.977 31.4628 179.826 31.2534 179.614 31.1263C179.401 30.9995 179.144 30.9664 178.907 31.0351C172.62 32.8499 167.184 35.8983 163.598 39.619C160.211 43.134 158.708 46.9953 159.474 50.2128C160.029 52.5445 161.915 54.8644 164.519 56.4187Z" fill="white"/>
<path d="M43.2407 100.365C45.3392 101.618 47.6535 102.224 49.6846 102.088C50.1738 102.056 50.6467 101.98 51.096 101.86C54.2915 101.006 56.9765 97.8496 58.4626 93.2C60.0356 88.2781 60.1381 82.0457 58.7511 75.6515C58.6984 75.4093 58.5479 75.1999 58.3352 75.0729C58.1223 74.946 57.8661 74.9129 57.6286 74.9817C51.3421 76.7964 45.9053 79.8448 42.3199 83.5656C38.9329 87.0806 37.4297 90.9418 38.1959 94.1593C38.7508 96.4911 40.6367 98.811 43.2407 100.365Z" fill="white"/>
<path d="M83.6668 100.365C85.7653 101.618 88.0796 102.224 90.1107 102.088C90.5999 102.056 91.0728 101.98 91.5221 101.86C94.7176 101.006 97.4026 97.8496 98.8887 93.2C100.462 88.2781 100.564 82.0457 99.1772 75.6515C99.1245 75.4093 98.974 75.1999 98.7613 75.0729C98.5484 74.946 98.2923 74.9129 98.0547 74.9817C91.7682 76.7964 86.3314 79.8448 82.746 83.5656C79.359 87.0806 77.8558 90.9418 78.622 94.1593C79.1769 96.4911 81.0628 98.811 83.6668 100.365Z" fill="white"/>
<path d="M138.818 100.505C140.952 99.3141 142.634 97.6128 143.532 95.7861C143.748 95.3462 143.919 94.8988 144.04 94.4498C144.898 91.2554 143.507 87.3518 140.223 83.74C136.747 79.9168 131.401 76.7118 125.17 74.7159C124.934 74.6405 124.678 74.6661 124.461 74.7867C124.245 74.9077 124.088 75.113 124.029 75.3531C122.457 81.7048 122.379 87.9373 123.808 92.9028C125.159 97.5935 127.751 100.826 130.921 101.771C133.218 102.456 136.17 101.983 138.818 100.505Z" fill="#6EE7B7"/>
<path d="M164.519 100.365C166.617 101.618 168.932 102.224 170.963 102.088C171.452 102.056 171.925 101.98 172.374 101.86C175.57 101.006 178.255 97.8496 179.741 93.2C181.314 88.2781 181.416 82.0457 180.029 75.6515C179.977 75.4093 179.826 75.1999 179.614 75.0729C179.401 74.946 179.144 74.9129 178.907 74.9817C172.62 76.7964 167.184 79.8448 163.598 83.5656C160.211 87.0806 158.708 90.9418 159.474 94.1593C160.029 96.4911 161.915 98.811 164.519 100.365Z" fill="white"/>
<path d="M43.2407 144.312C45.3392 145.564 47.6535 146.17 49.6846 146.035C50.1738 146.002 50.6467 145.927 51.096 145.807C54.2915 144.953 56.9765 141.796 58.4626 137.147C60.0356 132.225 60.1381 125.992 58.7511 119.598C58.6984 119.356 58.5479 119.146 58.3352 119.019C58.1223 118.893 57.8661 118.859 57.6286 118.928C51.3421 120.743 45.9053 123.791 42.3199 127.512C38.9329 131.027 37.4297 134.888 38.1959 138.106C38.7508 140.438 40.6367 142.758 43.2407 144.312Z" fill="white"/>
<path d="M83.6668 144.312C85.7653 145.564 88.0796 146.17 90.1107 146.035C90.5999 146.002 91.0728 145.927 91.5221 145.807C94.7176 144.953 97.4026 141.796 98.8887 137.147C100.462 132.225 100.564 125.992 99.1772 119.598C99.1245 119.356 98.974 119.146 98.7613 119.019C98.5484 118.893 98.2923 118.859 98.0547 118.928C91.7682 120.743 86.3314 123.791 82.746 127.512C79.359 131.027 77.8558 134.888 78.622 138.106C79.1769 140.438 81.0628 142.758 83.6668 144.312Z" fill="white"/>
<path d="M124.093 144.312C126.191 145.564 128.506 146.17 130.537 146.035C131.026 146.002 131.499 145.927 131.948 145.807C135.144 144.953 137.829 141.796 139.315 137.147C140.888 132.225 140.99 125.992 139.603 119.598C139.551 119.356 139.4 119.146 139.187 119.019C138.975 118.893 138.718 118.859 138.481 118.928C132.194 120.743 126.758 123.791 123.172 127.512C119.785 131.027 118.282 134.888 119.048 138.106C119.603 140.438 121.489 142.758 124.093 144.312Z" fill="white"/>
<path d="M164.519 144.312C166.617 145.564 168.932 146.17 170.963 146.035C171.452 146.002 171.925 145.927 172.374 145.807C175.57 144.953 178.255 141.796 179.741 137.147C181.314 132.225 181.416 125.992 180.029 119.598C179.977 119.356 179.826 119.146 179.614 119.019C179.401 118.893 179.144 118.859 178.907 118.928C172.62 120.743 167.184 123.791 163.598 127.512C160.211 131.027 158.708 134.888 159.474 138.106C160.029 140.438 161.915 142.758 164.519 144.312Z" fill="white"/>
<path d="M43.2407 188.258C45.3392 189.511 47.6535 190.117 49.6846 189.981C50.1738 189.949 50.6467 189.873 51.096 189.753C54.2915 188.899 56.9765 185.743 58.4626 181.093C60.0356 176.171 60.1381 169.939 58.7511 163.545C58.6984 163.302 58.5479 163.093 58.3352 162.966C58.1223 162.839 57.8661 162.806 57.6286 162.875C51.3421 164.69 45.9053 167.738 42.3199 171.459C38.9329 174.974 37.4297 178.835 38.1959 182.052C38.7508 184.384 40.6367 186.704 43.2407 188.258Z" fill="white"/>
<path d="M83.6668 188.258C85.7653 189.511 88.0796 190.117 90.1107 189.981C90.5999 189.949 91.0728 189.873 91.5221 189.753C94.7176 188.899 97.4026 185.743 98.8887 181.093C100.462 176.171 100.564 169.939 99.1772 163.545C99.1245 163.302 98.974 163.093 98.7613 162.966C98.5484 162.839 98.2923 162.806 98.0547 162.875C91.7682 164.69 86.3314 167.738 82.746 171.459C79.359 174.974 77.8558 178.835 78.622 182.052C79.1769 184.384 81.0628 186.704 83.6668 188.258Z" fill="white"/>
<path d="M124.093 188.258C126.191 189.511 128.506 190.117 130.537 189.981C131.026 189.949 131.499 189.873 131.948 189.753C135.144 188.899 137.829 185.743 139.315 181.093C140.888 176.171 140.99 169.939 139.603 163.545C139.551 163.302 139.4 163.093 139.187 162.966C138.975 162.839 138.718 162.806 138.481 162.875C132.194 164.69 126.758 167.738 123.172 171.459C119.785 174.974 118.282 178.835 119.048 182.052C119.603 184.384 121.489 186.704 124.093 188.258Z" fill="white"/>
<path d="M164.519 188.258C166.617 189.511 168.932 190.117 170.963 189.981C171.452 189.949 171.925 189.873 172.374 189.753C175.57 188.899 178.255 185.743 179.741 181.093C181.314 176.171 181.416 169.939 180.029 163.545C179.977 163.302 179.826 163.093 179.614 162.966C179.401 162.839 179.144 162.806 178.907 162.875C172.62 164.69 167.184 167.738 163.598 171.459C160.211 174.974 158.708 178.835 159.474 182.052C160.029 184.384 161.915 186.704 164.519 188.258Z" fill="white"/>
</g>
<defs>
<clipPath id="clip0_612_838">
<rect width="220" height="220" fill="white"/>
</clipPath>
</defs>
</svg>

