<svg width="21" height="21" viewBox="0 0 21 21" fill="none" xmlns="http://www.w3.org/2000/svg">
<path d="M10 1.99998H3C2.46957 1.99998 1.96086 2.2107 1.58579 2.58577C1.21071 2.96084 1 3.46955 1 3.99998V18C1 18.5304 1.21071 19.0391 1.58579 19.4142C1.96086 19.7893 2.46957 20 3 20H17C17.5304 20 18.0391 19.7893 18.4142 19.4142C18.7893 19.0391 19 18.5304 19 18V11M16.375 1.62498C16.7728 1.22716 17.3124 1.00366 17.875 1.00366C18.4376 1.00366 18.9772 1.22716 19.375 1.62498C19.7728 2.02281 19.9963 2.56237 19.9963 3.12498C19.9963 3.68759 19.7728 4.22716 19.375 4.62498L10.362 13.639C10.1245 13.8762 9.83121 14.0499 9.509 14.144L6.636 14.984C6.54995 15.0091 6.45874 15.0106 6.37191 14.9883C6.28508 14.9661 6.20583 14.9209 6.14245 14.8575C6.07907 14.7942 6.03389 14.7149 6.01164 14.6281C5.9894 14.5412 5.9909 14.45 6.016 14.364L6.856 11.491C6.95053 11.169 7.12453 10.876 7.362 10.639L16.375 1.62498Z" stroke="#525252" stroke-width="2" stroke-linecap="round" stroke-linejoin="round"/>
</svg>

