<svg width="20" height="20" viewBox="0 0 20 20" fill="none" xmlns="http://www.w3.org/2000/svg">
<path fill-rule="evenodd" clip-rule="evenodd" d="M1.41825 1.41825C1.92616 0.910341 2.61504 0.625 3.33333 0.625H9.31C10.0282 0.625153 10.7171 0.910554 11.2249 1.41843L18.4806 8.6741C19.0509 9.24802 19.3709 10.0243 19.3709 10.8333C19.3709 11.6424 19.0509 12.4186 18.4806 12.9926L18.4782 12.9949L12.9949 18.4782L12.9926 18.4806C12.4186 19.0509 11.6424 19.3709 10.8333 19.3709C10.0243 19.3709 9.24802 19.0509 8.6741 18.4806L8.67176 18.4782L1.41854 11.225C0.910665 10.7172 0.625153 10.0284 0.625 9.31022V3.33333C0.625 2.61504 0.910341 1.92616 1.41825 1.41825ZM3.33333 2.70833C3.16757 2.70833 3.0086 2.77418 2.89139 2.89139C2.77418 3.0086 2.70833 3.16757 2.70833 3.33333V9.30978C2.70843 9.47544 2.77429 9.63452 2.89146 9.75165L10.1426 17.0028L10.1436 17.0037C10.3271 17.1856 10.575 17.2876 10.8333 17.2876C11.0917 17.2876 11.3396 17.1856 11.5231 17.0037L11.5241 17.0028L17.0028 11.5241L17.0037 11.5231C17.1856 11.3396 17.2876 11.0917 17.2876 10.8333C17.2876 10.575 17.1856 10.3271 17.0037 10.1436L17.0028 10.1426L9.75176 2.89157C9.63463 2.7744 9.47567 2.70843 9.31 2.70833H3.33333Z" fill="white"/>
<path d="M7.33333 8.83333C8.16176 8.83333 8.83333 8.16176 8.83333 7.33333C8.83333 6.50491 8.16176 5.83333 7.33333 5.83333C6.50491 5.83333 5.83333 6.50491 5.83333 7.33333C5.83333 8.16176 6.50491 8.83333 7.33333 8.83333Z" fill="white"/>
</svg>

